# xmcd
#
# Track frame offsets:
#	150
#	16591
#	36334
#	51527
#	68827
#	84640
#	101747
#	124649
#	141823
#	158092
#	177002
#	197258
#	216144
#	238034
#	269796
#
# Disc length: 4132 seconds
#
# Revision: 6
# Processed by: cddbd v1.5.2PL0 Copyright (c) Steve Scherf et al.
# Submitted via: audiograbber 1.83.01
#
DISCID=d110220f
DTITLE=Unheilig - Grosse Freiheit
DYEAR=2010
DGENRE=Symphonic Rock
TTITLE0=Das Meer
TTITLE1=Seenot
TTITLE2=Für immer
TTITLE3=Geboren um zu leben
TTITLE4=Abwärts
TTITLE5=Halt mich
TTITLE6=Unter Feuer
TTITLE7=Grosse Freiheit
TTITLE8=Ich gehöre mir
TTITLE9=Heimatstern
TTITLE10=Sternbild
TTITLE11=Unter Deiner Flagge
TTITLE12=Fernweh
TTITLE13=Neuland
TTITLE14=Exklusiver Online Bonus
EXTD=
EXTT0=
EXTT1=
EXTT2=
EXTT3=
EXTT4=
EXTT5=
EXTT6=
EXTT7=
EXTT8=
EXTT9=
EXTT10=
EXTT11=
EXTT12=
EXTT13=
EXTT14=
PLAYORDER=
